# xmcd
# Track frame offsets:
# 150
# 15157
# 33830
# 53015
# 71460
# 90752
# 112830
# 128700
# 147645
# 160175
# 174270
# 195180
#
# Disc length: 2800 seconds
# Revision: 0
# Processed by: cddbd v1.4PL0 Copyright (c) Steve Scherf et al.
# Submitted via: VisiTrax 2.9.5.181 - For more info visit www.synapsa.com
#
DISCID=810aee0c
DTITLE=Stokkan - To The Bone
DYEAR=1994
DGENRE=Bluesrock
TTITLE0=No Turning Back
TTITLE1=Steel Me Away
TTITLE2=Far From Mississippi
TTITLE3=Roll Me Over
TTITLE4=Dawn Tilll Dark
TTITLE5=Mercury Blues
TTITLE6=Sweet Jesus
TTITLE7=Second To None
TTITLE8=A Fool For Your Loving
TTITLE9=Money Honey ( Impossible Dream )
TTITLE10=My Room
TTITLE11=Blue For My Baby
EXTD=
EXTT0=
EXTT1=
EXTT2=
EXTT3=
EXTT4=
EXTT5=
EXTT6=
EXTT7=
EXTT8=
EXTT9=
EXTT10=
EXTT11=
PLAYORDER=
